<?xml version="1.0" standalone="no"?>
<!DOCTYPE svg PUBLIC "-//W3C//DTD SVG 20010904//EN"
 "http://www.w3.org/TR/2001/REC-SVG-20010904/DTD/svg10.dtd">
<svg version="1.0" xmlns="http://www.w3.org/2000/svg"
 width="512.000000pt" height="512.000000pt" viewBox="0 0 512.000000 512.000000"
 preserveAspectRatio="xMidYMid meet">

<g transform="translate(0.000000,512.000000) scale(0.100000,-0.100000)"
fill="#F33E2B" stroke="#F33E2B">
<path d="M2577 4753 c-3 -4 -64 -136 -137 -293 -72 -157 -135 -288 -138 -292
-6 -5 -590 -58 -644 -58 -11 0 -21 -16 -31 -50 l-15 -50 72 -68 c39 -38 145
-138 236 -223 91 -84 166 -156 168 -160 2 -4 -128 -577 -143 -629 -2 -9 13
-27 39 -47 l43 -31 224 125 c123 68 253 140 289 159 l65 35 283 -170 282 -171
40 28 c21 15 39 34 40 42 0 8 -27 154 -60 323 -33 170 -58 313 -55 318 4 5
116 104 249 219 l244 211 -16 49 c-18 58 22 47 -372 95 -162 20 -296 40 -298
43 -2 4 -60 140 -130 302 l-127 295 -52 3 c-28 2 -53 -1 -56 -5z m158 -509
c88 -210 100 -232 124 -237 14 -3 131 -17 259 -33 128 -15 231 -31 230 -35 -2
-4 -79 -73 -173 -154 -93 -81 -180 -156 -192 -168 l-23 -22 50 -254 c28 -140
49 -255 48 -256 -2 -2 -103 58 -226 132 l-223 135 -226 -126 c-125 -69 -229
-123 -231 -121 -4 3 107 485 114 496 2 4 -83 87 -190 185 -107 99 -192 181
-191 182 2 2 106 12 232 23 125 11 242 21 259 24 29 5 35 16 139 240 60 129
112 232 116 228 4 -5 50 -112 104 -239z"/>
<path d="M1352 4223 c-15 -3 -28 -17 -38 -41 -8 -20 -58 -131 -112 -247 l-99
-210 -134 -12 c-74 -6 -198 -17 -276 -23 l-143 -13 -17 -54 -17 -54 34 -27
c19 -15 105 -92 190 -171 85 -79 161 -150 169 -157 11 -10 4 -55 -49 -283
l-63 -270 24 -20 c58 -48 46 -52 302 90 202 111 242 130 260 122 12 -6 120
-70 240 -142 l218 -132 43 31 42 31 -53 271 -52 272 41 35 c23 20 48 41 57 47
13 10 9 20 -33 68 -26 31 -51 56 -55 56 -5 0 -45 -32 -90 -71 -52 -45 -81 -77
-81 -91 0 -11 16 -103 35 -205 19 -102 35 -187 35 -190 0 -6 -61 29 -213 124
-73 45 -130 73 -147 73 -16 0 -96 -38 -196 -94 -93 -52 -170 -93 -172 -92 -1
2 16 81 38 176 22 95 40 190 40 210 0 35 -9 45 -145 171 -113 104 -141 135
-128 140 10 3 92 12 183 18 91 7 176 16 190 20 27 8 48 44 148 260 l58 124 82
-196 83 -195 102 -12 c56 -6 109 -14 119 -16 13 -4 17 6 23 48 3 29 8 65 11
80 5 26 4 26 -63 33 -37 4 -72 7 -76 9 -5 1 -46 91 -93 201 -133 316 -132 315
-168 314 -17 -1 -41 -4 -54 -6z"/>
<path d="M3822 4218 c-6 -8 -61 -119 -121 -247 -60 -128 -113 -237 -118 -241
-4 -5 -30 -10 -58 -12 l-50 -3 3 -70 c2 -38 7 -73 10 -77 12 -13 184 10 200
26 8 8 52 94 98 191 45 97 84 173 87 168 24 -40 137 -329 137 -351 l0 -27 203
-24 c111 -13 209 -27 219 -30 12 -4 -23 -40 -138 -140 -85 -73 -154 -140 -154
-148 0 -9 16 -98 36 -200 19 -101 34 -188 32 -192 -2 -5 -77 36 -167 90 -99
59 -176 99 -192 99 -14 0 -64 -22 -110 -48 -204 -117 -261 -146 -255 -126 13
45 86 366 86 382 0 15 -69 88 -168 177 l-32 29 -50 -49 c-28 -27 -50 -54 -50
-59 0 -5 30 -38 67 -71 l68 -62 -63 -269 -62 -269 37 -32 c21 -18 42 -33 46
-33 5 0 114 59 244 131 198 110 239 130 257 121 11 -5 119 -69 240 -141 l219
-132 39 27 c21 15 40 30 42 33 2 3 -20 127 -48 274 l-53 269 193 169 c106 93
198 178 205 190 8 16 8 32 -1 64 l-12 43 -81 10 c-45 6 -168 21 -274 33 l-192
23 -101 240 c-56 133 -107 247 -114 254 -20 21 -89 27 -104 10z"/>
<path d="M110 2295 l0 -75 390 0 390 0 0 -825 0 -825 -390 0 -390 0 0 -75 0
-75 413 0 c393 0 413 1 445 20 18 11 41 34 52 52 19 32 20 52 20 903 0 851 -1
871 -20 903 -11 18 -34 41 -52 52 -32 19 -52 20 -445 20 l-413 0 0 -75z"/>
<path d="M1217 2173 c-4 -3 -7 -39 -7 -80 l0 -73 243 0 c174 0 259 -4 303 -15
33 -7 166 -62 295 -121 129 -58 266 -120 304 -138 l70 -31 380 -5 c369 -5 381
-6 415 -27 47 -29 70 -71 70 -128 0 -57 -23 -99 -70 -128 -34 -22 -43 -22
-462 -25 l-428 -3 0 -75 0 -75 448 3 447 3 595 255 595 255 100 0 c86 0 107
-4 150 -25 55 -27 149 -114 143 -132 -5 -15 -1882 -1012 -1976 -1050 -98 -39
-209 -53 -304 -39 -40 7 -183 47 -318 90 -135 44 -352 114 -482 156 l-237 76
-141 6 -140 6 0 -81 0 -82 121 0 121 0 467 -150 c257 -83 501 -157 542 -166
89 -19 253 -14 344 10 84 22 177 70 1250 639 874 464 950 506 947 528 -1 13
-18 57 -38 98 -101 206 -338 319 -559 267 -33 -8 -258 -98 -499 -200 -241
-102 -442 -186 -446 -186 -4 0 -10 25 -14 56 -12 103 -81 200 -175 246 -45 22
-56 23 -426 28 l-380 5 -280 128 c-326 150 -370 166 -485 178 -99 10 -473 12
-483 2z"/>
<path d="M521 906 c-32 -18 -50 -53 -51 -97 0 -73 75 -124 143 -96 45 19 67
52 67 102 -1 82 -86 131 -159 91z"/>
</g>
</svg>
