<?xml version="1.0" standalone="no"?>
<!DOCTYPE svg PUBLIC "-//W3C//DTD SVG 20010904//EN"
 "http://www.w3.org/TR/2001/REC-SVG-20010904/DTD/svg10.dtd">
<svg version="1.0" xmlns="http://www.w3.org/2000/svg"
 width="512.000000pt" height="512.000000pt" viewBox="0 0 512.000000 512.000000"
 preserveAspectRatio="xMidYMid meet">

<g transform="translate(0.000000,512.000000) scale(0.100000,-0.100000)"
fill="#F33E2B" stroke="#F33E2B">
<path d="M753 4723 c-122 -85 -457 -350 -466 -370 -13 -30 -7 -44 84 -174 122
-175 189 -233 299 -254 l55 -11 537 -780 c295 -428 537 -784 537 -791 1 -7
-69 -60 -153 -118 -167 -114 -190 -136 -207 -199 -19 -68 0 -112 122 -283 61
-85 109 -156 108 -157 -2 -2 -27 -15 -55 -29 -97 -49 -171 -142 -215 -267 -28
-84 -32 -244 -7 -337 l17 -61 -62 -64 c-69 -71 -119 -161 -142 -261 -22 -91
-20 -150 6 -173 21 -19 66 -19 1790 -22 1931 -2 1820 -6 1835 53 13 54 -71
219 -137 266 -21 15 -29 29 -29 52 -2 181 -156 368 -318 386 l-56 6 -11 70
c-24 137 -103 253 -210 306 -67 33 -147 43 -205 27 -24 -7 -28 -2 -57 61 -76
163 -233 249 -378 207 -31 -10 -58 -16 -59 -14 -1 2 -10 28 -20 58 -34 101
-99 182 -180 223 -22 12 -33 31 -53 88 -43 127 -103 239 -230 429 -69 102
-133 194 -142 204 -39 45 -137 69 -195 46 -13 -5 -90 -54 -170 -110 -80 -55
-152 -103 -159 -106 -10 -3 -185 244 -563 793 l-548 798 -7 83 c-9 107 -34
157 -159 312 -84 105 -122 140 -149 140 -4 0 -26 -12 -48 -27z m117 -237 c85
-105 100 -137 100 -209 0 -173 -174 -276 -330 -197 -43 22 -62 43 -135 148
-49 71 -56 86 -44 97 47 44 334 254 339 248 4 -5 35 -44 70 -87z m745 -1241
c333 -485 580 -856 600 -898 40 -87 67 -187 63 -233 l-3 -34 -65 37 c-136 80
-179 136 -776 1007 l-554 809 48 28 c26 15 63 45 82 67 19 22 36 41 37 41 1 1
256 -370 568 -824z m1133 -690 c128 -186 174 -263 212 -358 35 -88 36 -97 12
-97 -35 0 -122 -52 -164 -99 -50 -55 -93 -138 -110 -210 l-11 -51 -47 0 c-146
0 -292 -139 -330 -316 l-11 -49 -53 -2 c-30 0 -73 -10 -97 -20 l-44 -20 -35
60 c-41 71 -112 137 -178 167 -42 19 -61 40 -184 214 -76 107 -138 200 -138
208 0 21 27 43 181 147 l136 92 69 -71 c119 -124 268 -214 373 -227 44 -5 50
-3 70 23 22 27 23 36 18 144 -3 94 -10 132 -36 210 -17 52 -44 118 -60 146
l-28 52 151 105 c104 72 159 105 176 104 20 -2 45 -31 128 -152z m355 -599
c79 -32 147 -164 147 -281 0 -46 4 -57 26 -74 38 -30 57 -26 109 19 59 51 111
67 165 51 82 -24 141 -102 165 -216 22 -107 59 -129 133 -80 80 53 161 39 231
-42 54 -60 75 -127 76 -234 0 -71 4 -91 19 -108 21 -23 56 -27 87 -10 60 32
156 -3 208 -76 42 -59 52 -87 61 -185 6 -72 11 -87 30 -100 38 -25 100 -87
100 -99 0 -8 -444 -11 -1661 -11 l-1662 0 6 37 c15 89 88 189 172 236 22 12
46 34 54 47 12 23 11 31 -13 84 -37 80 -50 148 -43 231 14 180 116 305 250
305 101 0 186 -82 228 -222 12 -41 27 -72 39 -78 34 -18 65 -11 96 21 33 36
97 68 135 69 15 0 43 -7 63 -15 74 -31 116 9 116 109 0 118 78 242 169 266 36
9 52 9 92 -4 95 -31 119 -14 124 91 9 196 143 326 278 269z"/>
<path d="M2750 1354 c-56 -24 -80 -52 -80 -95 0 -64 61 -90 114 -48 l27 21 23
-21 c12 -11 32 -21 45 -21 27 0 71 42 71 69 0 31 -57 89 -98 101 -48 13 -60
12 -102 -6z"/>
<path d="M1703 1291 c-46 -22 -63 -45 -63 -90 0 -48 74 -83 107 -50 8 8 17 8
32 -1 33 -17 72 -8 94 22 26 35 17 69 -27 103 -46 35 -91 40 -143 16z"/>
<path d="M3290 1268 c-47 -32 -64 -68 -49 -102 17 -37 60 -52 97 -34 24 13 32
13 47 1 38 -27 88 -3 100 49 5 21 0 34 -27 63 -29 31 -42 38 -84 42 -40 4 -55
0 -84 -19z"/>
<path d="M3805 945 c-39 -20 -75 -64 -75 -91 0 -58 76 -89 120 -49 17 16 24
17 38 7 42 -30 65 -34 91 -14 36 26 40 76 9 109 -49 53 -123 68 -183 38z"/>
<path d="M2124 790 c-18 -12 -37 -34 -44 -51 -11 -27 -10 -34 7 -57 22 -30 75
-41 99 -21 11 9 18 9 26 1 18 -18 73 -14 91 6 50 55 -13 142 -101 142 -30 0
-58 -8 -78 -20z"/>
<path d="M2941 783 c-35 -17 -71 -66 -71 -95 0 -47 90 -79 120 -43 7 8 18 15
25 15 7 0 18 -7 25 -15 17 -21 73 -19 93 3 37 41 10 105 -60 141 -31 16 -93
13 -132 -6z"/>
</g>
</svg>
