<?xml version="1.0" standalone="no"?>
<!DOCTYPE svg PUBLIC "-//W3C//DTD SVG 20010904//EN"
 "http://www.w3.org/TR/2001/REC-SVG-20010904/DTD/svg10.dtd">
<svg version="1.0" xmlns="http://www.w3.org/2000/svg"
 width="512.000000pt" height="512.000000pt" viewBox="0 0 512.000000 512.000000"
 preserveAspectRatio="xMidYMid meet">

<g transform="translate(0.000000,512.000000) scale(0.100000,-0.100000)"
fill="#F33E2B" stroke="#F33E2B">
<path d="M3020 5110 c-602 -85 -1076 -544 -1175 -1139 -21 -125 -16 -383 10
-501 56 -253 183 -491 357 -669 209 -213 430 -335 718 -395 l105 -22 3 -264
c1 -174 6 -268 13 -277 6 -7 23 -13 38 -13 21 0 91 65 366 340 285 286 352
348 415 384 293 170 508 427 620 741 57 163 73 260 74 450 0 138 -4 189 -22
272 -61 281 -181 503 -382 703 -192 192 -417 314 -685 372 -104 22 -353 32
-455 18z m470 -133 c368 -97 657 -322 823 -644 97 -187 139 -362 141 -573 0
-163 -12 -251 -56 -390 -97 -304 -312 -572 -577 -717 -53 -29 -125 -95 -373
-342 l-308 -306 0 225 c0 124 -4 231 -9 239 -5 8 -55 21 -121 32 -580 97
-1009 560 -1059 1139 -33 391 108 757 394 1028 179 169 398 280 644 327 122
23 381 14 501 -18z"/>
<path d="M3115 4746 c-86 -37 -134 -113 -135 -209 0 -187 218 -291 359 -170
57 48 82 101 82 172 1 93 -50 171 -133 205 -45 19 -132 20 -173 2z m153 -112
c60 -39 65 -128 11 -180 -25 -24 -39 -29 -79 -29 -43 0 -54 5 -82 33 -27 27
-33 40 -33 76 0 99 100 153 183 100z"/>
<path d="M2986 4118 c-14 -20 -16 -95 -16 -618 0 -523 2 -598 16 -618 15 -21
20 -22 213 -22 140 0 200 3 209 12 9 9 12 163 12 630 0 600 -1 618 -19 628
-12 6 -98 10 -210 10 -185 0 -190 -1 -205 -22z m329 -618 l0 -535 -117 -3
-118 -3 0 541 0 541 118 -3 117 -3 0 -535z"/>
<path d="M2185 1874 c-60 -10 -140 -36 -204 -69 -85 -42 -224 -125 -232 -136
-3 -6 -335 -9 -790 -9 -694 0 -787 -2 -807 -16 l-22 -15 0 -729 c0 -649 2
-730 16 -744 14 -14 101 -16 810 -16 872 0 837 -2 869 60 10 19 15 58 15 116
l0 86 93 -5 c91 -4 96 -6 527 -176 239 -94 469 -181 510 -192 276 -74 608 3
828 194 92 79 1111 1057 1136 1090 78 103 72 264 -14 369 -70 85 -222 119
-316 70 -23 -12 -225 -150 -449 -307 -224 -157 -408 -285 -409 -283 -1 2 -10
28 -19 59 -20 66 -81 140 -137 169 -59 30 -1093 447 -1152 465 -55 16 -200 27
-253 19z m205 -115 c45 -10 960 -377 1100 -441 85 -39 124 -78 141 -140 20
-76 -23 -178 -91 -213 -64 -33 -55 -35 -899 240 -173 56 -188 57 -211 14 -26
-48 -10 -55 491 -218 261 -85 495 -156 520 -159 27 -2 70 3 103 12 56 17 101
53 176 144 24 29 828 599 915 649 67 38 142 26 197 -33 34 -37 48 -74 48 -130
0 -93 33 -58 -710 -764 -297 -283 -480 -450 -528 -481 -84 -55 -199 -102 -291
-119 -92 -17 -244 -14 -331 6 -41 9 -249 86 -463 171 -500 198 -544 213 -641
213 l-76 0 0 548 0 548 88 51 c118 69 143 81 204 97 63 17 195 20 258 5z
m-1300 -859 l0 -650 -425 0 -425 0 0 650 0 650 425 0 425 0 0 -650z m640 0 l0
-650 -265 0 -265 0 0 650 0 650 265 0 265 0 0 -650z"/>
</g>
</svg>
