<?xml version="1.0" standalone="no"?>
<!DOCTYPE svg PUBLIC "-//W3C//DTD SVG 20010904//EN"
 "http://www.w3.org/TR/2001/REC-SVG-20010904/DTD/svg10.dtd">
<svg version="1.0" xmlns="http://www.w3.org/2000/svg"
 width="512.000000pt" height="512.000000pt" viewBox="0 0 512.000000 512.000000"
 preserveAspectRatio="xMidYMid meet">

<g transform="translate(0.000000,512.000000) scale(0.100000,-0.100000)"
fill="#F33E2B" stroke="#F33E2B">
<path d="M170 5111 c-77 -24 -141 -84 -159 -148 -6 -22 -11 -140 -11 -274 0
-224 1 -238 21 -263 28 -36 80 -36 108 0 20 25 21 39 21 261 l0 234 25 24 24
25 311 0 310 0 0 -1170 0 -1170 -335 0 -335 0 0 754 c0 722 -1 755 -19 777
-26 32 -86 32 -112 0 -19 -23 -19 -78 -17 -2016 l3 -1993 30 -43 c35 -50 82
-84 134 -99 50 -14 4732 -14 4782 0 52 15 99 49 134 99 l30 43 3 751 c1 414 0
762 -3 775 -12 50 -110 59 -135 12 -6 -12 -10 -294 -10 -755 l0 -736 -25 -24
-24 -25 -311 0 -310 0 0 1820 0 1820 335 0 335 0 0 -908 0 -909 23 -21 c31
-29 80 -29 107 0 l20 22 -2 1497 -3 1497 -30 43 c-35 50 -82 84 -134 99 -43
12 -4742 13 -4781 1z m1480 -1856 l0 -1715 -335 0 -335 0 0 1715 0 1715 335 0
335 0 0 -1715z m830 -695 l0 -2410 -335 0 -335 0 0 2410 0 2410 335 0 335 0 0
-2410z m830 1245 l0 -1165 -335 0 -335 0 0 1165 0 1165 335 0 335 0 0 -1165z
m830 -1245 l0 -2410 -335 0 -335 0 0 2410 0 2410 335 0 335 0 0 -2410z m805
2385 l25 -24 0 -491 0 -490 -335 0 -335 0 0 515 0 515 310 0 311 0 24 -25z
m-4125 -3625 l0 -1170 -310 0 -311 0 -24 25 -25 24 0 1146 0 1145 335 0 335 0
0 -1170z m2490 0 l0 -1170 -335 0 -335 0 0 1170 0 1170 335 0 335 0 0 -1170z
m-1660 -550 l0 -620 -335 0 -335 0 0 620 0 620 335 0 335 0 0 -620z"/>
<path d="M1126 1827 c-33 -33 -34 -76 -3 -105 31 -29 72 -28 102 3 45 44 22
109 -42 121 -26 5 -37 1 -57 -19z"/>
<path d="M1423 1838 c-48 -23 -51 -103 -4 -127 78 -42 154 64 85 118 -29 23
-48 25 -81 9z"/>
<path d="M1951 4754 c-12 -15 -21 -34 -21 -44 0 -10 9 -29 21 -44 41 -52 129
-23 129 44 0 67 -88 96 -129 44z"/>
<path d="M2237 4762 c-23 -25 -22 -85 1 -105 25 -23 85 -22 105 1 23 25 22 85
-1 105 -25 23 -85 22 -105 -1z"/>
<path d="M1955 415 c-14 -13 -25 -36 -25 -50 0 -33 42 -75 75 -75 33 0 75 42
75 75 0 33 -42 75 -75 75 -14 0 -37 -11 -50 -25z"/>
<path d="M2240 420 c-30 -30 -27 -83 6 -109 34 -26 54 -26 88 0 52 41 23 129
-44 129 -17 0 -39 -9 -50 -20z"/>
<path d="M2781 2924 c-28 -36 -26 -70 5 -101 20 -20 31 -24 57 -19 64 12 87
77 42 121 -33 34 -77 33 -104 -1z"/>
<path d="M3077 2939 c-46 -27 -41 -105 9 -128 35 -16 48 -14 78 10 51 40 23
129 -41 129 -16 0 -36 -5 -46 -11z"/>
<path d="M3616 4747 c-31 -31 -33 -65 -5 -101 41 -52 129 -19 129 49 0 32 -30
64 -67 71 -26 5 -37 1 -57 -19z"/>
<path d="M3898 4740 c-24 -25 -29 -36 -24 -58 21 -89 146 -78 146 12 0 25 -7
40 -26 55 -36 29 -60 26 -96 -9z"/>
<path d="M3612 397 c-36 -38 -28 -88 18 -112 36 -19 83 -4 99 31 16 35 14 47
-10 78 -27 34 -77 36 -107 3z"/>
<path d="M3895 400 c-42 -47 -7 -123 56 -123 61 0 92 80 49 123 -26 26 -81 26
-105 0z"/>
<path d="M4445 4215 c-14 -13 -25 -36 -25 -50 0 -14 11 -37 25 -50 13 -14 36
-25 50 -25 14 0 37 11 50 25 14 13 25 36 25 50 0 14 -11 37 -25 50 -13 14 -36
25 -50 25 -14 0 -37 -11 -50 -25z"/>
<path d="M4732 4220 c-47 -44 -15 -130 48 -130 66 0 96 88 44 129 -34 27 -64
27 -92 1z"/>
<path d="M313 2310 c-26 -11 -43 -40 -43 -74 0 -63 89 -90 129 -40 12 15 21
33 21 40 0 26 -23 62 -47 73 -28 13 -30 13 -60 1z"/>
<path d="M580 2292 c-35 -36 -38 -60 -9 -96 15 -19 30 -26 55 -26 90 0 101
125 12 146 -22 5 -33 0 -58 -24z"/>
<path d="M2785 2285 c-14 -13 -25 -36 -25 -50 0 -33 42 -75 75 -75 33 0 75 42
75 75 0 33 -42 75 -75 75 -14 0 -37 -11 -50 -25z"/>
<path d="M3082 2303 c-7 -3 -19 -18 -28 -35 -19 -37 -5 -80 32 -97 35 -16 48
-14 78 10 66 52 -1 155 -82 122z"/>
<path d="M1143 1200 c-72 -29 -45 -140 34 -140 32 0 73 37 73 66 0 26 -23 62
-47 73 -28 13 -30 13 -60 1z"/>
<path d="M1408 1180 c-24 -25 -29 -36 -24 -58 21 -89 146 -78 146 12 0 25 -7
40 -26 55 -36 29 -60 26 -96 -9z"/>
<path d="M4445 3575 c-14 -13 -25 -36 -25 -50 0 -14 11 -37 25 -50 13 -14 36
-25 50 -25 14 0 37 11 50 25 14 13 25 36 25 50 0 14 -11 37 -25 50 -13 14 -36
25 -50 25 -14 0 -37 -11 -50 -25z"/>
<path d="M4736 3579 c-52 -41 -23 -129 44 -129 67 0 96 88 44 129 -15 12 -34
21 -44 21 -10 0 -29 -9 -44 -21z"/>
<path d="M313 2950 c-72 -29 -45 -140 34 -140 32 0 73 37 73 66 0 26 -23 62
-47 73 -28 13 -30 13 -60 1z"/>
<path d="M594 2949 c-22 -11 -44 -48 -44 -75 0 -8 11 -26 25 -39 47 -48 125
-20 125 44 0 55 -59 93 -106 70z"/>
</g>
</svg>
